# xmcd CD database file
#
# Track frame offsets:
#	150
#	19374
#	38732
#	56575
#	75959
#	95393
#	120640
#	139238
#	156269
#	177760
#	200378
#	217216
#	233712
#	251464
#	267774
#	283422
#	310205
#
# Disc length: 4343 seconds
#
# Revision: 0
# Processed by: cddbd v1.5.2PL0 Copyright (c) Steve Scherf et al.
# Submitted via: CDex 1,2,0,0
#
DISCID=ef10f511
DTITLE=Various Artist - Exquisite Jazz Collection
DYEAR=1900
DGENRE=Jazz
TTITLE0=Spell - Deon Estus
TTITLE1=Let's Celebrate - Jones Girls
TTITLE2=Meant For You - Debra Laws
TTITLE3=Never Existed Before - Minnie Ripperton
TTITLE4=I Wish Right Now Would Never End - David Benoit
TTITLE5=Say You Love Me - Patti Austin
TTITLE6=Stay Awake - Ronnie Laws
TTITLE7=All the Reasons Why - Noel Pointer
TTITLE8=Last Night at Danceland - Randy Crawford
TTITLE9=You Like Med Don't You - Jermaine Jackson
TTITLE10=Half a Minute - Matt Bianco and Basia
TTITLE11=Let's Make Love - John Klemmer
TTITLE12=Tell Me Why - MFSB and Carla Benson
TTITLE13=Your Love - Debra Laws
TTITLE14=Thank You My Love - Imagination
TTITLE15=Brazill 66 Medley - Lani Hall
TTITLE16=Tonight I Give In - Angela Bofill
EXTD=
EXTT0=
EXTT1=
EXTT2=
EXTT3=
EXTT4=
EXTT5=
EXTT6=
EXTT7=
EXTT8=
EXTT9=
EXTT10=
EXTT11=
EXTT12=
EXTT13=
EXTT14=
EXTT15=
EXTT16=
PLAYORDER=
